M48
;DRILL file {KiCad 4.0.2+dfsg1-stable} date Sat 02 Apr 2016 08:10:02 PM CEST
;FORMAT={-:-/ absolute / inch / decimal}
FMAT,2
INCH,TZ
T1C0.012
T2C0.012
T3C0.013
T4C0.028
T5C0.039
T6C0.030
T7C0.067
T8C0.071
T9C0.075
T10C0.079
%
G90
G05
M72
T1
X3.428Y-3.6398
X3.428Y-5.335
X3.4768Y-3.6398
X3.4768Y-5.335
X3.5169Y-3.5815
X3.5169Y-5.2768
X3.6024Y-3.763
X3.6024Y-5.4583
X3.6394Y-4.4335
X3.6394Y-6.1287
X3.6904Y-3.6376
X3.6904Y-5.3329
X3.7159Y-3.7596
X3.7159Y-5.4549
X3.7189Y-4.0618
X3.7189Y-5.7571
X3.7205Y-3.9272
X3.7205Y-5.6224
X3.8126Y-4.6543
X3.8126Y-6.3496
X3.8287Y-4.7
X3.8287Y-6.3953
X3.8323Y-4.2327
X3.8323Y-5.928
X3.928Y-4.472
X3.928Y-6.1673
X3.9283Y-4.5197
X3.9283Y-6.215
X3.937Y-4.6303
X3.937Y-6.3256
X3.9669Y-4.472
X3.9669Y-4.5213
X3.9669Y-6.1673
X3.9669Y-6.2165
X4.0209Y-3.9831
X4.0209Y-4.039
X4.0209Y-5.6783
X4.0209Y-5.7343
X4.0358Y-4.7134
X4.0358Y-6.4087
X4.0437Y-4.5862
X4.0437Y-6.2815
X4.0512Y-4.0146
X4.0512Y-5.7098
X4.1028Y-3.7813
X4.1028Y-5.4766
X4.1083Y-4.3386
X4.1083Y-6.0339
X4.1175Y-4.0795
X4.1175Y-5.7748
X4.1531Y-4.6409
X4.1531Y-6.3362
X4.2327Y-4.2232
X4.2327Y-5.9185
X4.2583Y-4.0795
X4.2583Y-5.7748
X4.2642Y-3.8207
X4.2642Y-5.5159
X4.3094Y-3.6219
X4.3094Y-5.3171
X4.3638Y-3.8862
X4.3638Y-5.5815
X4.3677Y-4.4441
X4.3677Y-4.498
X4.3677Y-6.1394
X4.3677Y-6.1933
X4.3732Y-4.3941
X4.3732Y-6.0894
X4.4089Y-3.7193
X4.4089Y-5.4146
X4.4091Y-3.8866
X4.4091Y-5.5819
X4.411Y-3.9319
X4.411Y-3.9587
X4.411Y-5.6272
X4.411Y-5.6539
X4.4197Y-4.1945
X4.4197Y-5.8898
X4.5567Y-4.3724
X4.5567Y-6.0677
X4.5764Y-4.3516
X4.5764Y-6.0469
X4.5937Y-4.4094
X4.5937Y-6.1047
X4.6146Y-4.3898
X4.6146Y-6.085
X4.6165Y-4.3177
X4.6165Y-6.013
X4.6516Y-3.6268
X4.6516Y-3.6945
X4.6516Y-5.322
X4.6516Y-5.3898
X4.6638Y-3.6004
X4.6638Y-5.2957
X4.6756Y-3.574
X4.6756Y-5.2693
X4.689Y-4.185
X4.689Y-5.8803
X4.6923Y-4.1031
X4.6923Y-5.7984
X4.7146Y-3.6268
X4.7146Y-5.322
X4.715Y-3.6004
X4.715Y-5.2957
X4.7154Y-3.574
X4.7154Y-5.2693
X4.7346Y-4.1031
X4.7346Y-5.7984
X4.7366Y-4.3917
X4.7366Y-6.087
X4.7378Y-4.185
X4.7378Y-5.8803
X4.7445Y-3.6949
X4.7445Y-5.3902
X4.7618Y-4.3634
X4.7618Y-6.0587
X4.8618Y-3.7445
X4.8618Y-5.4398
X4.8921Y-3.5937
X4.8921Y-3.7035
X4.8921Y-5.289
X4.8921Y-5.3988
X4.9122Y-3.2972
X4.9122Y-3.3441
X4.9122Y-4.9925
X4.9122Y-5.0394
X4.9217Y-4.1496
X4.9217Y-5.8449
X4.924Y-4.2421
X4.924Y-5.9374
X4.9657Y-3.8701
X4.9657Y-5.5654
X5.0524Y-4.2988
X5.0524Y-5.9941
X5.0539Y-4.1461
X5.0539Y-5.8413
X5.0626Y-4.1957
X5.0626Y-5.8909
X5.0815Y-3.7307
X5.0815Y-5.426
X5.0843Y-3.7
X5.0843Y-5.3953
X5.0846Y-3.6402
X5.0846Y-5.3354
X5.085Y-3.5854
X5.085Y-5.2807
X5.0854Y-3.6118
X5.0854Y-3.6689
X5.0854Y-5.3071
X5.0854Y-5.3642
X5.0953Y-4.0441
X5.0953Y-5.7394
X5.1012Y-3.9854
X5.1012Y-5.6807
X5.1067Y-4.239
X5.1067Y-5.9343
X5.1071Y-4.2654
X5.1071Y-5.9606
X5.1217Y-4.4846
X5.1217Y-6.1799
X5.124Y-4.024
X5.124Y-5.7193
X5.1276Y-3.2854
X5.1276Y-3.3437
X5.1276Y-4.9807
X5.1276Y-5.039
X5.1283Y-3.9839
X5.1283Y-5.6791
X5.1547Y-3.5854
X5.1547Y-3.6382
X5.1547Y-5.2807
X5.1547Y-5.3335
X5.1551Y-3.6118
X5.1551Y-3.6689
X5.1551Y-5.3071
X5.1551Y-5.3642
X5.1567Y-3.7
X5.1567Y-5.3953
X5.1575Y-3.7307
X5.1575Y-5.426
X5.1583Y-4.239
X5.1583Y-4.2654
X5.1583Y-5.9343
X5.1583Y-5.9606
X5.1717Y-4.328
X5.1717Y-6.0232
X5.1937Y-4.2512
X5.1937Y-5.9465
X5.198Y-4.328
X5.198Y-6.0232
X5.2114Y-3.5091
X5.2114Y-3.5618
X5.2114Y-5.2043
X5.2114Y-5.2571
X5.2146Y-4.4425
X5.2146Y-6.1378
X5.2417Y-4.4406
X5.2417Y-6.1358
X5.2429Y-4.4846
X5.2429Y-6.1799
X5.3157Y-4.3598
X5.3157Y-6.0551
X5.3488Y-3.9526
X5.3488Y-5.6478
X5.3776Y-4.3598
X5.3776Y-6.0551
X5.4343Y-4.4939
X5.4343Y-6.1892
X5.4827Y-3.9732
X5.4827Y-5.6685
X5.5122Y-3.4752
X5.5122Y-5.1705
X5.6173Y-3.7063
X5.6173Y-5.4016
X5.6181Y-3.5524
X5.6181Y-5.2476
X5.6213Y-4.2183
X5.6213Y-5.9136
X5.7268Y-4.0431
X5.7268Y-5.7384
X5.8894Y-3.7323
X5.8894Y-5.4276
X5.8911Y-3.864
X5.8911Y-5.5593
X5.9108Y-4.2183
X5.9108Y-5.9136
X5.9295Y-4.5037
X5.9295Y-6.199
X5.9315Y-3.3945
X5.9315Y-5.0898
X5.9325Y-4.4171
X5.9325Y-6.1124
X5.9335Y-4.0904
X5.9335Y-5.7856
X5.9738Y-4.2183
X5.9738Y-5.9136
X6.0083Y-3.5728
X6.0083Y-3.7283
X6.0083Y-3.9565
X6.0083Y-5.2681
X6.0083Y-5.4236
X6.0083Y-5.6518
X6.2551Y-4.4565
X6.2551Y-6.1518
X6.2563Y-3.4417
X6.2563Y-5.137
X6.3203Y-3.9486
X6.3203Y-5.6439
X6.3205Y-3.5748
X6.3205Y-3.7283
X6.3205Y-5.2701
X6.3205Y-5.4236
X6.3577Y-4.0904
X6.3577Y-5.7856
X6.5583Y-4.4663
X6.5583Y-6.1616
X6.5624Y-3.4358
X6.5624Y-5.1311
X6.6327Y-3.5736
X6.6327Y-3.7283
X6.6327Y-5.2689
X6.6327Y-5.4236
X6.6331Y-3.9486
X6.6331Y-5.6439
X6.6343Y-3.9457
X6.6343Y-5.6409
X6.7035Y-3.8217
X6.7035Y-5.5169
X6.8134Y-4.2823
X6.8134Y-5.9776
X6.8465Y-3.5846
X6.8465Y-3.6752
X6.8465Y-5.2799
X6.8465Y-5.3705
X6.8752Y-4.4467
X6.8752Y-6.1419
X6.8793Y-3.4565
X6.8793Y-5.1518
X6.937Y-3.5969
X6.937Y-5.2921
X6.9423Y-3.9516
X6.9423Y-5.6469
X6.965Y-3.6248
X6.965Y-5.3201
X6.978Y-4.0811
X6.978Y-5.7764
X6.9787Y-4.1673
X6.9787Y-5.8626
X7.1559Y-4.1512
X7.1559Y-5.8465
T2
X3.3776Y-3.4724
X3.3776Y-5.1677
X4.5114Y-4.0795
X4.5114Y-5.7748
X4.674Y-3.9606
X4.674Y-5.6559
X4.6815Y-3.3933
X4.6815Y-5.0886
X4.822Y-3.5551
X4.822Y-5.2504
X5.1858Y-3.4114
X5.1858Y-5.1067
X5.1917Y-3.8016
X5.1917Y-5.4969
X5.3193Y-3.4803
X5.3193Y-5.1756
X5.5091Y-3.8232
X5.5091Y-5.5185
X5.6409Y-4.4205
X5.6409Y-6.1157
X5.7012Y-3.4854
X5.7012Y-5.1807
X5.8059Y-4.1516
X5.8059Y-5.8469
X5.8083Y-4.0323
X5.8083Y-5.7276
X5.926Y-3.8043
X5.926Y-5.4996
X6.2126Y-3.772
X6.2126Y-5.4673
X6.4075Y-3.4319
X6.4075Y-5.1272
X6.4449Y-3.7768
X6.4449Y-5.472
X7.1161Y-4.0492
X7.1161Y-5.7445
T3
X3.4082Y-4.5402
X3.4082Y-6.2355
T4
X7.0118Y-3.5551
X7.0118Y-3.6181
X7.0118Y-3.6811
X7.0118Y-5.2504
X7.0118Y-5.3134
X7.0118Y-5.3764
X7.0591Y-3.5866
X7.0591Y-3.6496
X7.0591Y-5.2819
X7.0591Y-5.3449
T5
X6.459Y-3.2238
X6.459Y-4.9191
X6.5579Y-3.2386
X6.5579Y-4.9339
X6.6568Y-3.2534
X6.6568Y-4.9486
T6
X3.1012Y-3.5744
X3.1012Y-3.6925
X3.1012Y-5.2697
X3.1012Y-5.3878
X3.4039Y-3.2538
X3.4039Y-4.9491
X3.519Y-3.2273
X3.519Y-4.9225
T7
X3.0957Y-4.427
X3.0957Y-6.1222
X3.1272Y-4.427
X3.1272Y-6.1222
T8
X6.5917Y-4.6356
X6.5917Y-6.3309
T9
X3.2552Y-3.2831
X3.2552Y-4.9784
X3.2591Y-4.6217
X3.2591Y-6.3169
X6.3339Y-3.2063
X6.3339Y-4.9016
X6.3359Y-4.6827
X6.3359Y-6.378
X7.1095Y-3.3973
X7.1095Y-5.0925
X7.1115Y-4.4937
X7.1115Y-6.189
T10
X3.8909Y-4.1888
X3.8909Y-5.8841
T4
X7.2343Y-3.4744G85X7.187Y-3.4744
G05
X7.2343Y-3.7618G85X7.187Y-3.7618
G05
X7.2343Y-5.1697G85X7.187Y-5.1697
G05
X7.2343Y-5.4571G85X7.187Y-5.4571
G05
T0
M30
