  0
SECTION
  2
HEADER
  9
$ACADVER
  1
AC1014
  9
$HANDSEED
  5
FFFF
  9
$MEASUREMENT
 70
     1
  0
ENDSEC
  0
SECTION
  2
TABLES
  0
TABLE
  2
VPORT
  5
8
330
0
100
AcDbSymbolTable
 70
     4
  0
VPORT
  5
2E
330
8
100
AcDbSymbolTableRecord
100
AcDbViewportTableRecord
  2
*ACTIVE
 70
     0
 10
0.0
 20
0.0
 11
1.0
 21
1.0
 12
210.0
 22
148.5
 13
0.0
 23
0.0
 14
10.0
 24
10.0
 15
10.0
 25
10.0
 16
0.0
 26
0.0
 36
1.0
 17
0.0
 27
0.0
 37
0.0
 40
341.0
 41
1.24
 42
50.0
 43
0.0
 44
0.0
 50
0.0
 51
0.0
 71
     0
 72
   100
 73
     1
 74
     3
 75
     0
 76
     0
 77
     0
 78
     0
  0
ENDTAB
  0
TABLE
  2
LTYPE
  5
5
330
0
100
AcDbSymbolTable
 70
     1
  0
LTYPE
  5
14
330
5
100
AcDbSymbolTableRecord
100
AcDbLinetypeTableRecord
  2
BYBLOCK
 70
     0
  3

 72
    65
 73
     0
 40
0.0
  0
LTYPE
  5
15
330
5
100
AcDbSymbolTableRecord
100
AcDbLinetypeTableRecord
  2
BYLAYER
 70
     0
  3

 72
    65
 73
     0
 40
0.0
  0
LTYPE
  5
16
330
5
100
AcDbSymbolTableRecord
100
AcDbLinetypeTableRecord
  2
CONTINUOUS
 70
     0
  3
Solid line
 72
    65
 73
     0
 40
0.0
  0
ENDTAB
  0
TABLE
  2
LAYER
  5
2
100
AcDbSymbolTable
 70
2
  0
LAYER
  5
50
100
AcDbSymbolTableRecord
100
AcDbLayerTableRecord
  2
0
 70
0
  6
CONTINUOUS
  0
LAYER
  5
51
100
AcDbSymbolTableRecord
100
AcDbLayerTableRecord
  2
Laag_1
 70
0
  6
CONTINUOUS
  0
ENDTAB
  0
TABLE
  2
STYLE
  5
3
330
0
100
AcDbSymbolTable
 70
     1
  0
STYLE
  5
11
330
3
100
AcDbSymbolTableRecord
100
AcDbTextStyleTableRecord
  2
STANDARD
 70
     0
 40
0.0
 41
1.0
 50
0.0
 71
     0
 42
2.5
  3
txt
  4

  0
ENDTAB
  0
TABLE
  2
VIEW
  5
6
330
0
100
AcDbSymbolTable
 70
     0
  0
ENDTAB
  0
TABLE
  2
UCS
  5
7
330
0
100
AcDbSymbolTable
 70
     0
  0
ENDTAB
  0
TABLE
  2
APPID
  5
9
330
0
100
AcDbSymbolTable
 70
     2
  0
APPID
  5
12
330
9
100
AcDbSymbolTableRecord
100
AcDbRegAppTableRecord
  2
ACAD
 70
     0
  0
ENDTAB
  0
TABLE
  2
DIMSTYLE
  5
A
330
0
100
AcDbSymbolTable
 70
     1
  0
DIMSTYLE
105
27
330
A
100
AcDbSymbolTableRecord
100
AcDbDimStyleTableRecord
  2
ISO-25
 70
     0
  3

  4

  5

  6

  7

 40
1.0
 41
2.5
 42
0.625
 43
3.75
 44
1.25
 45
0.0
 46
0.0
 47
0.0
 48
0.0
140
2.5
141
2.5
142
0.0
143
0.03937007874016
144
1.0
145
0.0
146
1.0
147
0.625
 71
     0
 72
     0
 73
     0
 74
     0
 75
     0
 76
     0
 77
     1
 78
     8
170
     0
171
     3
172
     1
173
     0
174
     0
175
     0
176
     0
177
     0
178
     0
270
     2
271
     2
272
     2
273
     2
274
     3
340
11
275
     0
280
     0
281
     0
282
     0
283
     0
284
     8
285
     0
286
     0
287
     3
288
     0
  0
ENDTAB
  0
TABLE
  2
BLOCK_RECORD
  5
1
330
0
100
AcDbSymbolTable
 70
     1
  0
BLOCK_RECORD
  5
1F
330
1
100
AcDbSymbolTableRecord
100
AcDbBlockTableRecord
  2
*MODEL_SPACE
  0
BLOCK_RECORD
  5
1B
330
1
100
AcDbSymbolTableRecord
100
AcDbBlockTableRecord
  2
*PAPER_SPACE
  0
ENDTAB
  0
ENDSEC
  0
SECTION
  2
BLOCKS
  0
BLOCK
  5
20
330
1F
100
AcDbEntity
  8
0
100
AcDbBlockBegin
  2
*MODEL_SPACE
 70
     0
 10
0.0
 20
0.0
 30
0.0
  3
*MODEL_SPACE
  1

  0
ENDBLK
  5
21
330
1F
100
AcDbEntity
  8
0
100
AcDbBlockEnd
  0
BLOCK
  5
1C
330
1B
100
AcDbEntity
 67
     1
  8
0
100
AcDbBlockBegin
  2
*PAPER_SPACE
  1

  0
ENDBLK
  5
1D
330
1B
100
AcDbEntity
 67
     1
  8
0
100
AcDbBlockEnd
  0
ENDSEC
  0
SECTION
  2
ENTITIES
  0
LINE
  5
100
100
AcDbEntity
  8
Laag_1
 62
7
100
AcDbLine
 10
139.638509
 20
164.100283
 30
0.0
 11
139.139320
 21
164.051331
 31
0.0
  0
LINE
  5
101
100
AcDbEntity
  8
Laag_1
 62
7
100
AcDbLine
 10
139.139320
 20
164.051331
 30
0.0
 11
130.624168
 21
164.051326
 31
0.0
  0
LINE
  5
102
100
AcDbEntity
  8
Laag_1
 62
7
100
AcDbLine
 10
130.624168
 20
164.051326
 30
0.0
 11
116.395650
 21
164.051331
 31
0.0
  0
LINE
  5
103
100
AcDbEntity
  8
Laag_1
 62
7
100
AcDbLine
 10
116.395650
 20
164.051331
 30
0.0
 11
115.568400
 21
164.051326
 31
0.0
  0
LINE
  5
104
100
AcDbEntity
  8
Laag_1
 62
7
100
AcDbLine
 10
115.568400
 20
164.051326
 30
0.0
 11
104.576908
 21
164.051326
 31
0.0
  0
LINE
  5
105
100
AcDbEntity
  8
Laag_1
 62
7
100
AcDbLine
 10
104.576908
 20
164.051326
 30
0.0
 11
73.354229
 21
164.051328
 31
0.0
  0
LINE
  5
106
100
AcDbEntity
  8
Laag_1
 62
7
100
AcDbLine
 10
73.354229
 20
164.051328
 30
0.0
 11
72.855040
 21
164.100280
 31
0.0
  0
LINE
  5
107
100
AcDbEntity
  8
Laag_1
 62
7
100
AcDbLine
 10
72.855040
 20
164.100280
 30
0.0
 11
72.464388
 21
164.218206
 31
0.0
  0
LINE
  5
108
100
AcDbEntity
  8
Laag_1
 62
7
100
AcDbLine
 10
72.464388
 20
164.218206
 30
0.0
 11
72.104439
 21
164.409641
 31
0.0
  0
LINE
  5
109
100
AcDbEntity
  8
Laag_1
 62
7
100
AcDbLine
 10
72.104439
 20
164.409641
 30
0.0
 11
71.788920
 21
164.667380
 31
0.0
  0
LINE
  5
10a
100
AcDbEntity
  8
Laag_1
 62
7
100
AcDbLine
 10
71.788920
 20
164.667380
 30
0.0
 11
71.529939
 21
164.981366
 31
0.0
  0
LINE
  5
10b
100
AcDbEntity
  8
Laag_1
 62
7
100
AcDbLine
 10
71.529939
 20
164.981366
 30
0.0
 11
71.337579
 21
165.339583
 31
0.0
  0
LINE
  5
10c
100
AcDbEntity
  8
Laag_1
 62
7
100
AcDbLine
 10
71.337579
 20
165.339583
 30
0.0
 11
71.219068
 21
165.728352
 31
0.0
  0
LINE
  5
10d
100
AcDbEntity
  8
Laag_1
 62
7
100
AcDbLine
 10
71.219068
 20
165.728352
 30
0.0
 11
71.169869
 21
166.225125
 31
0.0
  0
LINE
  5
10e
100
AcDbEntity
  8
Laag_1
 62
7
100
AcDbLine
 10
71.169869
 20
166.225125
 30
0.0
 11
71.169869
 21
170.244579
 31
0.0
  0
LINE
  5
10f
100
AcDbEntity
  8
Laag_1
 62
7
100
AcDbLine
 10
71.169869
 20
170.244579
 30
0.0
 11
71.169869
 21
187.885582
 31
0.0
  0
LINE
  5
110
100
AcDbEntity
  8
Laag_1
 62
7
100
AcDbLine
 10
71.169869
 20
187.885582
 30
0.0
 11
71.169869
 21
188.989432
 31
0.0
  0
LINE
  5
111
100
AcDbEntity
  8
Laag_1
 62
7
100
AcDbLine
 10
71.169869
 20
188.989432
 30
0.0
 11
71.169869
 21
193.989431
 31
0.0
  0
LINE
  5
112
100
AcDbEntity
  8
Laag_1
 62
7
100
AcDbLine
 10
71.169869
 20
193.989431
 30
0.0
 11
71.169869
 21
197.748893
 31
0.0
  0
LINE
  5
113
100
AcDbEntity
  8
Laag_1
 62
7
100
AcDbLine
 10
71.169869
 20
197.748893
 30
0.0
 11
71.219068
 21
198.245669
 31
0.0
  0
LINE
  5
114
100
AcDbEntity
  8
Laag_1
 62
7
100
AcDbLine
 10
71.219068
 20
198.245669
 30
0.0
 11
71.337571
 21
198.634439
 31
0.0
  0
LINE
  5
115
100
AcDbEntity
  8
Laag_1
 62
7
100
AcDbLine
 10
71.337571
 20
198.634439
 30
0.0
 11
71.529931
 21
198.992652
 31
0.0
  0
LINE
  5
116
100
AcDbEntity
  8
Laag_1
 62
7
100
AcDbLine
 10
71.529931
 20
198.992652
 30
0.0
 11
71.788909
 21
199.306641
 31
0.0
  0
LINE
  5
117
100
AcDbEntity
  8
Laag_1
 62
7
100
AcDbLine
 10
71.788909
 20
199.306641
 30
0.0
 11
72.104431
 21
199.564375
 31
0.0
  0
LINE
  5
118
100
AcDbEntity
  8
Laag_1
 62
7
100
AcDbLine
 10
72.104431
 20
199.564375
 30
0.0
 11
72.464380
 21
199.755815
 31
0.0
  0
LINE
  5
119
100
AcDbEntity
  8
Laag_1
 62
7
100
AcDbLine
 10
72.464380
 20
199.755815
 30
0.0
 11
72.855029
 21
199.873742
 31
0.0
  0
LINE
  5
11a
100
AcDbEntity
  8
Laag_1
 62
7
100
AcDbLine
 10
72.855029
 20
199.873742
 30
0.0
 11
73.354198
 21
199.922693
 31
0.0
  0
LINE
  5
11b
100
AcDbEntity
  8
Laag_1
 62
7
100
AcDbLine
 10
73.354198
 20
199.922693
 30
0.0
 11
76.108029
 21
199.922696
 31
0.0
  0
LINE
  5
11c
100
AcDbEntity
  8
Laag_1
 62
7
100
AcDbLine
 10
76.108029
 20
199.922696
 30
0.0
 11
81.108019
 21
199.922699
 31
0.0
  0
LINE
  5
11d
100
AcDbEntity
  8
Laag_1
 62
7
100
AcDbLine
 10
81.108019
 20
199.922699
 30
0.0
 11
93.790609
 21
199.922696
 31
0.0
  0
LINE
  5
11e
100
AcDbEntity
  8
Laag_1
 62
7
100
AcDbLine
 10
93.790609
 20
199.922696
 30
0.0
 11
98.790630
 21
199.922696
 31
0.0
  0
LINE
  5
11f
100
AcDbEntity
  8
Laag_1
 62
7
100
AcDbLine
 10
98.790630
 20
199.922696
 30
0.0
 11
111.183691
 21
199.922696
 31
0.0
  0
LINE
  5
120
100
AcDbEntity
  8
Laag_1
 62
7
100
AcDbLine
 10
111.183691
 20
199.922696
 30
0.0
 11
116.183720
 21
199.922693
 31
0.0
  0
LINE
  5
121
100
AcDbEntity
  8
Laag_1
 62
7
100
AcDbLine
 10
116.183720
 20
199.922693
 30
0.0
 11
127.867509
 21
199.922699
 31
0.0
  0
LINE
  5
122
100
AcDbEntity
  8
Laag_1
 62
7
100
AcDbLine
 10
127.867509
 20
199.922699
 30
0.0
 11
132.867499
 21
199.922696
 31
0.0
  0
LINE
  5
123
100
AcDbEntity
  8
Laag_1
 62
7
100
AcDbLine
 10
132.867499
 20
199.922696
 30
0.0
 11
139.139309
 21
199.922696
 31
0.0
  0
LINE
  5
124
100
AcDbEntity
  8
Laag_1
 62
7
100
AcDbLine
 10
139.139309
 20
199.922696
 30
0.0
 11
139.638498
 21
199.873747
 31
0.0
  0
LINE
  5
125
100
AcDbEntity
  8
Laag_1
 62
7
100
AcDbLine
 10
139.638498
 20
199.873747
 30
0.0
 11
140.029150
 21
199.755818
 31
0.0
  0
LINE
  5
126
100
AcDbEntity
  8
Laag_1
 62
7
100
AcDbLine
 10
140.029150
 20
199.755818
 30
0.0
 11
140.389099
 21
199.564378
 31
0.0
  0
LINE
  5
127
100
AcDbEntity
  8
Laag_1
 62
7
100
AcDbLine
 10
140.389099
 20
199.564378
 30
0.0
 11
140.704618
 21
199.306644
 31
0.0
  0
LINE
  5
128
100
AcDbEntity
  8
Laag_1
 62
7
100
AcDbLine
 10
140.704618
 20
199.306644
 30
0.0
 11
140.963599
 21
198.992655
 31
0.0
  0
LINE
  5
129
100
AcDbEntity
  8
Laag_1
 62
7
100
AcDbLine
 10
140.963599
 20
198.992655
 30
0.0
 11
141.155951
 21
198.634442
 31
0.0
  0
LINE
  5
12a
100
AcDbEntity
  8
Laag_1
 62
7
100
AcDbLine
 10
141.155951
 20
198.634442
 30
0.0
 11
141.274439
 21
198.245672
 31
0.0
  0
LINE
  5
12b
100
AcDbEntity
  8
Laag_1
 62
7
100
AcDbLine
 10
141.274439
 20
198.245672
 30
0.0
 11
141.323639
 21
197.748896
 31
0.0
  0
LINE
  5
12c
100
AcDbEntity
  8
Laag_1
 62
7
100
AcDbLine
 10
141.323639
 20
197.748896
 30
0.0
 11
141.323639
 21
179.122833
 31
0.0
  0
LINE
  5
12d
100
AcDbEntity
  8
Laag_1
 62
7
100
AcDbLine
 10
141.323639
 20
179.122833
 30
0.0
 11
141.323639
 21
170.922836
 31
0.0
  0
LINE
  5
12e
100
AcDbEntity
  8
Laag_1
 62
7
100
AcDbLine
 10
141.323639
 20
170.922836
 30
0.0
 11
141.323639
 21
166.225128
 31
0.0
  0
LINE
  5
12f
100
AcDbEntity
  8
Laag_1
 62
7
100
AcDbLine
 10
141.323639
 20
166.225128
 30
0.0
 11
141.274439
 21
165.728358
 31
0.0
  0
LINE
  5
130
100
AcDbEntity
  8
Laag_1
 62
7
100
AcDbLine
 10
141.274439
 20
165.728358
 30
0.0
 11
141.155951
 21
165.339585
 31
0.0
  0
LINE
  5
131
100
AcDbEntity
  8
Laag_1
 62
7
100
AcDbLine
 10
141.155951
 20
165.339585
 30
0.0
 11
140.963599
 21
164.981369
 31
0.0
  0
LINE
  5
132
100
AcDbEntity
  8
Laag_1
 62
7
100
AcDbLine
 10
140.963599
 20
164.981369
 30
0.0
 11
140.704618
 21
164.667380
 31
0.0
  0
LINE
  5
133
100
AcDbEntity
  8
Laag_1
 62
7
100
AcDbLine
 10
140.704618
 20
164.667380
 30
0.0
 11
140.389099
 21
164.409646
 31
0.0
  0
LINE
  5
134
100
AcDbEntity
  8
Laag_1
 62
7
100
AcDbLine
 10
140.389099
 20
164.409646
 30
0.0
 11
140.029150
 21
164.218209
 31
0.0
  0
LINE
  5
135
100
AcDbEntity
  8
Laag_1
 62
7
100
AcDbLine
 10
140.029150
 20
164.218209
 30
0.0
 11
139.638509
 21
164.100283
 31
0.0
  0
LINE
  5
136
100
AcDbEntity
  8
Laag_1
 62
7
100
AcDbLine
 10
83.123710
 20
195.075157
 30
0.0
 11
92.123709
 21
195.075154
 31
0.0
  0
LINE
  5
137
100
AcDbEntity
  8
Laag_1
 62
7
100
AcDbLine
 10
92.123709
 20
195.075154
 30
0.0
 11
92.123709
 21
198.075156
 31
0.0
  0
LINE
  5
138
100
AcDbEntity
  8
Laag_1
 62
7
100
AcDbLine
 10
92.123709
 20
198.075156
 30
0.0
 11
83.123710
 21
198.075156
 31
0.0
  0
LINE
  5
139
100
AcDbEntity
  8
Laag_1
 62
7
100
AcDbLine
 10
83.123710
 20
198.075156
 30
0.0
 11
83.123710
 21
195.075157
 31
0.0
  0
ENDSEC
  0
SECTION
  2
OBJECTS
  0
DICTIONARY
  5
C
330
0
100
AcDbDictionary
  3
ACAD_GROUP
350
D
  3
ACAD_MLINESTYLE
350
17
  0
DICTIONARY
  5
D
330
C
100
AcDbDictionary
  0
DICTIONARY
  5
1A
330
C
100
AcDbDictionary
  0
DICTIONARY
  5
17
330
C
100
AcDbDictionary
  3
STANDARD
350
18
  0
DICTIONARY
  5
19
330
C
100
AcDbDictionary
  0
ENDSEC
  0
EOF
