M48
;DRILL file {KiCad 4.0.2+dfsg1-stable} date Wed 16 Mar 2016 07:29:02 PM CET
;FORMAT={-:-/ absolute / inch / decimal}
FMAT,2
INCH,TZ
T1C0.012
T2C0.012
T3C0.028
T4C0.032
T5C0.039
T6C0.118
T7C0.030
%
G90
G05
M72
T1
X6.6555Y-4.002
X6.6555Y-5.3075
X6.6555Y-6.6134
X6.6972Y-4.4232
X6.6972Y-5.7287
X6.6972Y-7.0346
X6.7191Y-4.4235
X6.7191Y-5.729
X6.7191Y-7.0349
X6.7618Y-4.174
X6.7618Y-5.4795
X6.7618Y-6.7854
X6.8051Y-4.1319
X6.8051Y-5.4374
X6.8051Y-6.7433
X6.8061Y-4.1742
X6.8061Y-5.4797
X6.8061Y-6.7856
X6.8238Y-3.874
X6.8238Y-5.1795
X6.8238Y-6.4854
X6.8297Y-3.939
X6.8297Y-5.2445
X6.8297Y-6.5504
X6.872Y-4.1585
X6.872Y-5.464
X6.872Y-6.7699
X6.878Y-3.939
X6.878Y-5.2445
X6.878Y-6.5504
X6.8789Y-4.185
X6.8789Y-5.4906
X6.8789Y-6.7965
X6.8888Y-4.1339
X6.8888Y-5.4394
X6.8888Y-6.7453
X6.9193Y-4.1585
X6.9193Y-5.464
X6.9193Y-6.7699
X6.9203Y-4.185
X6.9203Y-5.4906
X6.9203Y-6.7965
X6.9677Y-4.1984
X6.9677Y-5.5039
X6.9677Y-6.8098
X6.9705Y-4.1339
X6.9705Y-5.4394
X6.9705Y-6.7453
X6.9965Y-4.0807
X6.9965Y-4.1323
X6.9965Y-5.3862
X6.9965Y-5.4378
X6.9965Y-6.6921
X6.9965Y-6.7437
X7.0236Y-4.2411
X7.0236Y-5.5467
X7.0236Y-6.8526
X7.0472Y-4.3219
X7.0472Y-4.3898
X7.0472Y-5.6274
X7.0472Y-5.6953
X7.0472Y-6.9333
X7.0472Y-7.0012
X7.0669Y-4.0876
X7.0669Y-5.3931
X7.0669Y-6.699
X7.0738Y-4.3219
X7.0738Y-5.6274
X7.0738Y-6.9333
X7.074Y-4.3894
X7.074Y-5.6949
X7.074Y-7.0008
X7.0758Y-4.2411
X7.0758Y-5.5467
X7.0758Y-6.8526
X7.0945Y-3.9498
X7.0945Y-5.2553
X7.0945Y-6.5612
X7.0974Y-4.19
X7.0974Y-5.4955
X7.0974Y-6.8014
X7.0994Y-4.315
X7.0994Y-5.6205
X7.0994Y-6.9264
X7.1201Y-4.2972
X7.1201Y-5.6028
X7.1201Y-6.9087
X7.1339Y-4.4429
X7.1339Y-4.4695
X7.1339Y-5.7484
X7.1339Y-5.775
X7.1339Y-7.0543
X7.1339Y-7.0809
X7.1348Y-4.1535
X7.1348Y-5.4591
X7.1348Y-6.765
X7.1426Y-4.842
X7.1426Y-6.1475
X7.1426Y-7.4534
X7.1437Y-4.1083
X7.1437Y-5.4138
X7.1437Y-6.7197
X7.1575Y-4.3868
X7.1575Y-5.6923
X7.1575Y-6.9982
X7.175Y-4.8432
X7.175Y-6.1487
X7.175Y-7.4546
X7.1781Y-4.3671
X7.1781Y-5.6726
X7.1781Y-6.9785
X7.1929Y-4.2343
X7.1929Y-5.5398
X7.1929Y-6.8457
X7.1959Y-3.9193
X7.1959Y-5.2248
X7.1959Y-6.5307
X7.1978Y-4.2904
X7.1978Y-5.5959
X7.1978Y-6.9018
X7.1988Y-4.4016
X7.1988Y-5.7071
X7.1988Y-7.013
X7.2126Y-4.2077
X7.2126Y-4.4429
X7.2126Y-5.5132
X7.2126Y-5.7484
X7.2126Y-6.8191
X7.2126Y-7.0543
X7.2136Y-4.4695
X7.2136Y-5.775
X7.2136Y-7.0809
X7.2244Y-4.2707
X7.2244Y-4.376
X7.2244Y-5.5762
X7.2244Y-5.6815
X7.2244Y-6.8821
X7.2244Y-6.9874
X7.2411Y-3.9193
X7.2411Y-5.2248
X7.2411Y-6.5307
X7.2413Y-4.874
X7.2413Y-6.1795
X7.2413Y-7.4854
X7.2482Y-4.9032
X7.2482Y-6.2087
X7.2482Y-7.5146
X7.2549Y-4.8189
X7.2549Y-6.1244
X7.2549Y-7.4303
X7.255Y-4.7602
X7.255Y-6.0657
X7.255Y-7.3716
X7.2638Y-4.2077
X7.2638Y-5.5132
X7.2638Y-6.8191
X7.2648Y-4.2343
X7.2648Y-5.5398
X7.2648Y-6.8457
X7.2744Y-4.513
X7.2744Y-4.5421
X7.2744Y-5.8185
X7.2744Y-5.8476
X7.2744Y-7.1244
X7.2744Y-7.1535
X7.2825Y-4.8189
X7.2825Y-6.1244
X7.2825Y-7.4303
X7.2828Y-4.7602
X7.2828Y-6.0657
X7.2828Y-7.3716
X7.2886Y-4.6953
X7.2886Y-6.0008
X7.2886Y-7.3067
X7.2961Y-4.2102
X7.2961Y-4.3583
X7.2961Y-5.5157
X7.2961Y-5.6638
X7.2961Y-6.8217
X7.2961Y-6.9697
X7.2972Y-4.8791
X7.2972Y-6.1846
X7.2972Y-7.4906
X7.31Y-4.8524
X7.31Y-6.1579
X7.31Y-7.4638
X7.3102Y-4.7612
X7.3102Y-6.0667
X7.3102Y-7.3726
X7.3224Y-4.2102
X7.3224Y-4.3583
X7.3224Y-5.5157
X7.3224Y-5.6638
X7.3224Y-6.8217
X7.3224Y-6.9697
X7.3228Y-4.0945
X7.3228Y-5.4
X7.3228Y-6.7059
X7.3372Y-4.7606
X7.3372Y-6.0661
X7.3372Y-7.372
X7.3374Y-4.3898
X7.3374Y-4.4291
X7.3374Y-5.6953
X7.3374Y-5.7346
X7.3374Y-7.0012
X7.3374Y-7.0406
X7.3376Y-4.8524
X7.3376Y-6.1579
X7.3376Y-7.4638
X7.361Y-4.513
X7.361Y-5.8185
X7.361Y-7.1244
X7.3614Y-4.5421
X7.3614Y-5.8476
X7.3614Y-7.1535
X7.363Y-4.3709
X7.363Y-4.4228
X7.363Y-5.6764
X7.363Y-5.7283
X7.363Y-6.9823
X7.363Y-7.0343
X7.3638Y-4.7614
X7.3638Y-4.8524
X7.3638Y-6.0669
X7.3638Y-6.1579
X7.3638Y-7.3728
X7.3638Y-7.4638
X7.3933Y-4.9035
X7.3933Y-6.2091
X7.3933Y-7.515
X7.4051Y-4.6957
X7.4051Y-6.0012
X7.4051Y-7.3071
X7.4177Y-4.9039
X7.4177Y-6.2094
X7.4177Y-7.5154
X7.4408Y-4.4688
X7.4408Y-5.7743
X7.4408Y-7.0802
X7.5118Y-4.4222
X7.5118Y-5.7278
X7.5118Y-7.0337
X7.512Y-4.3506
X7.512Y-5.6561
X7.512Y-6.962
X7.5156Y-4.1148
X7.5156Y-5.4203
X7.5156Y-6.7262
X7.5165Y-4.1409
X7.5165Y-5.4464
X7.5165Y-6.7523
X7.5167Y-3.8711
X7.5167Y-5.1766
X7.5167Y-6.4825
X7.5228Y-4.6343
X7.5228Y-5.9398
X7.5228Y-7.2457
X7.5638Y-4.6354
X7.5638Y-5.9409
X7.5638Y-7.2469
X7.5794Y-4.037
X7.5794Y-4.0624
X7.5794Y-5.3425
X7.5794Y-5.3679
X7.5794Y-6.6484
X7.5794Y-6.6738
X7.6142Y-4.6354
X7.6142Y-5.9409
X7.6142Y-7.2469
X7.6242Y-4.508
X7.6242Y-5.8135
X7.6242Y-7.1194
X7.6378Y-4.8331
X7.6378Y-6.1386
X7.6378Y-7.4445
X7.6464Y-4.508
X7.6464Y-5.8135
X7.6464Y-7.1194
X7.6669Y-4.8705
X7.6669Y-6.176
X7.6669Y-7.4819
X7.6823Y-3.939
X7.6823Y-3.9657
X7.6823Y-5.2445
X7.6823Y-5.2713
X7.6823Y-6.5504
X7.6823Y-6.5772
X7.6831Y-3.9921
X7.6831Y-5.2976
X7.6831Y-6.6035
X7.6839Y-3.9122
X7.6839Y-5.2177
X7.6839Y-6.5236
X7.7406Y-3.9122
X7.7406Y-3.939
X7.7406Y-3.9654
X7.7406Y-3.9921
X7.7406Y-5.2177
X7.7406Y-5.2445
X7.7406Y-5.2709
X7.7406Y-5.2976
X7.7406Y-6.5236
X7.7406Y-6.5504
X7.7406Y-6.5768
X7.7406Y-6.6035
X7.7717Y-3.8929
X7.7717Y-3.9441
X7.7717Y-4.8551
X7.7717Y-5.1984
X7.7717Y-5.2496
X7.7717Y-6.1606
X7.7717Y-6.5043
X7.7717Y-6.5555
X7.7717Y-7.4665
X7.798Y-3.8929
X7.798Y-3.9441
X7.798Y-5.1984
X7.798Y-5.2496
X7.798Y-6.5043
X7.798Y-6.5555
X7.8295Y-4.8547
X7.8295Y-6.1602
X7.8295Y-7.4661
X7.8366Y-3.8929
X7.8366Y-3.9315
X7.8366Y-5.1984
X7.8366Y-5.237
X7.8366Y-6.5043
X7.8366Y-6.5429
X7.8642Y-4.7781
X7.8642Y-6.0836
X7.8642Y-7.3895
X7.8786Y-4.5733
X7.8786Y-5.8788
X7.8786Y-7.1847
X7.8988Y-4.778
X7.8988Y-6.0835
X7.8988Y-7.3894
X7.9457Y-4.4728
X7.9457Y-5.7783
X7.9457Y-7.0843
X7.9461Y-4.4157
X7.9461Y-4.4449
X7.9461Y-5.7213
X7.9461Y-5.7504
X7.9461Y-7.0272
X7.9461Y-7.0563
X7.9794Y-4.6167
X7.9794Y-5.9222
X7.9794Y-7.2281
X7.9976Y-4.7543
X7.9976Y-6.0598
X7.9976Y-7.3657
X8.026Y-4.7543
X8.026Y-6.0598
X8.026Y-7.3657
X8.0358Y-4.561
X8.0358Y-5.8665
X8.0358Y-7.1724
X8.043Y-4.8071
X8.043Y-6.1126
X8.043Y-7.4185
X8.0433Y-4.7814
X8.0433Y-6.0869
X8.0433Y-7.3928
X8.0925Y-4.3137
X8.0925Y-5.6192
X8.0925Y-6.9251
X8.102Y-4.4819
X8.102Y-5.7874
X8.102Y-7.0933
X8.1021Y-4.5079
X8.1021Y-5.8135
X8.1021Y-7.1194
X8.1028Y-4.5366
X8.1028Y-5.8421
X8.1028Y-7.148
X8.1138Y-4.3137
X8.1138Y-5.6192
X8.1138Y-6.9251
X8.1193Y-4.4598
X8.1193Y-5.7654
X8.1193Y-7.0713
X8.1227Y-4.5083
X8.1227Y-5.8138
X8.1227Y-7.1197
X8.1374Y-4.3937
X8.1374Y-5.6992
X8.1374Y-7.0051
X8.1378Y-4.365
X8.1378Y-5.6705
X8.1378Y-6.9764
X8.1776Y-4.3933
X8.1776Y-5.6988
X8.1776Y-7.0047
X8.178Y-4.365
X8.178Y-5.6705
X8.178Y-6.9764
X8.2156Y-4.862
X8.2156Y-6.1675
X8.2156Y-7.4734
X8.2416Y-4.862
X8.2416Y-6.1675
X8.2416Y-7.4734
X8.2457Y-4.5165
X8.2457Y-4.5563
X8.2457Y-5.822
X8.2457Y-5.8618
X8.2457Y-7.128
X8.2457Y-7.1677
X8.2672Y-4.862
X8.2672Y-6.1675
X8.2672Y-7.4734
X8.2884Y-4.446
X8.2884Y-5.7515
X8.2884Y-7.0574
X8.2887Y-4.4736
X8.2887Y-5.7791
X8.2887Y-7.085
X8.2945Y-3.8484
X8.2945Y-5.1539
X8.2945Y-6.4598
X8.3244Y-4.6217
X8.3244Y-5.9272
X8.3244Y-7.2331
X8.326Y-4.5941
X8.326Y-5.8996
X8.326Y-7.2055
X8.3457Y-4.6496
X8.3457Y-5.9551
X8.3457Y-7.261
X8.4043Y-4.6217
X8.4043Y-4.6496
X8.4043Y-5.9272
X8.4043Y-5.9551
X8.4043Y-7.2331
X8.4043Y-7.261
X8.4047Y-4.5941
X8.4047Y-5.8996
X8.4047Y-7.2055
X8.4087Y-4.8028
X8.4087Y-4.863
X8.4087Y-6.1083
X8.4087Y-6.1685
X8.4087Y-7.4142
X8.4087Y-7.4744
X8.4161Y-4.2394
X8.4161Y-5.5449
X8.4161Y-6.8508
X8.4941Y-4.7906
X8.4941Y-4.863
X8.4941Y-6.0961
X8.4941Y-6.1685
X8.4941Y-7.402
X8.4941Y-7.4744
X8.5016Y-4.302
X8.5016Y-5.6075
X8.5016Y-6.9134
X8.639Y-4.7945
X8.639Y-6.1
X8.639Y-7.4059
X8.6602Y-4.7122
X8.6602Y-6.0177
X8.6602Y-7.3236
X8.7323Y-4.7413
X8.7323Y-6.0469
X8.7323Y-7.3528
X8.765Y-4.7413
X8.765Y-6.0469
X8.765Y-7.3528
X8.8406Y-4.5555
X8.8406Y-5.861
X8.8406Y-7.1669
X8.8688Y-3.8688
X8.8688Y-5.1743
X8.8688Y-6.4802
T2
X6.6409Y-3.8665
X6.6409Y-5.172
X6.6409Y-6.478
X6.8102Y-4.3012
X6.8102Y-5.6067
X6.8102Y-6.9126
X6.811Y-4.4488
X6.811Y-4.685
X6.811Y-5.7543
X6.811Y-5.9906
X6.811Y-7.0602
X6.811Y-7.2965
X7.0079Y-4.4488
X7.0079Y-4.685
X7.0079Y-5.7543
X7.0079Y-5.9906
X7.0079Y-7.0602
X7.0079Y-7.2965
X7.2047Y-4.6457
X7.2047Y-5.9512
X7.2047Y-7.2571
X7.3228Y-3.9764
X7.3228Y-5.2819
X7.3228Y-6.5878
X7.4409Y-3.9764
X7.4409Y-5.2819
X7.4409Y-6.5878
X7.4803Y-4.8031
X7.4803Y-6.1087
X7.4803Y-7.4146
X7.7165Y-4.4488
X7.7165Y-5.7543
X7.7165Y-7.0602
X7.874Y-4.252
X7.874Y-5.5575
X7.874Y-6.8634
X8.1594Y-4.8524
X8.1594Y-6.1579
X8.1594Y-7.4638
X8.3465Y-4.8031
X8.3465Y-6.1087
X8.3465Y-7.4146
X8.4941Y-4.7047
X8.4941Y-6.0102
X8.4941Y-7.3161
X8.4969Y-4.3366
X8.4969Y-5.6421
X8.4969Y-6.948
X8.5362Y-4.3543
X8.5362Y-5.6598
X8.5362Y-6.9657
T3
X8.9803Y-4.626
X8.9803Y-4.689
X8.9803Y-4.752
X8.9803Y-5.9315
X8.9803Y-5.9945
X8.9803Y-6.0575
X8.9803Y-7.2374
X8.9803Y-7.3004
X8.9803Y-7.3634
X9.0276Y-4.6575
X9.0276Y-4.7205
X9.0276Y-5.963
X9.0276Y-6.026
X9.0276Y-7.2689
X9.0276Y-7.3319
T4
X8.8362Y-4.8824
X8.8362Y-4.961
X8.8362Y-6.1879
X8.8362Y-6.2665
X8.8362Y-7.4938
X8.8362Y-7.5724
T5
X7.0398Y-3.8415
X7.0398Y-5.147
X7.0398Y-6.453
X7.1398Y-3.8415
X7.1398Y-5.147
X7.1398Y-6.453
X7.2398Y-3.8415
X7.2398Y-5.147
X7.2398Y-6.453
T6
X6.7846Y-4.9213
X6.7846Y-6.2268
X6.7846Y-7.5327
X8.4984Y-3.9366
X8.4984Y-5.2421
X8.4984Y-6.548
X9.11Y-4.9467
X9.11Y-6.2522
X9.11Y-7.5581
T7
X7.9776Y-4.9808
X7.9776Y-6.2863
X7.9776Y-7.5922
X8.0957Y-4.9808
X8.0957Y-6.2863
X8.0957Y-7.5922
X8.474Y-4.9808
X8.474Y-6.2863
X8.474Y-7.5922
X8.5921Y-4.9808
X8.5921Y-6.2863
X8.5921Y-7.5922
T3
X9.2028Y-4.5453G85X9.1555Y-4.5453
G05
X9.2028Y-4.8327G85X9.1555Y-4.8327
G05
X9.2028Y-5.8508G85X9.1555Y-5.8508
G05
X9.2028Y-6.1382G85X9.1555Y-6.1382
G05
X9.2028Y-7.1567G85X9.1555Y-7.1567
G05
X9.2028Y-7.4441G85X9.1555Y-7.4441
G05
T0
M30
